# xmcd
#
# Track frame offsets: 
#        150
#        15225
#        27671
#        42259
#        55759
#        68664
#        81262
#        97019
#        116820
#        129044
#        141605
#
# Disc length: 2036 seconds
#
# Revision: 0
# Processed by: cddbd v1.5.2PL0 Copyright (c) Steve Scherf et al.
# Submitted via: ExactAudioCopy v0.95a5
#
DISCID=9307f20b
DTITLE=Bacvk Bee - Blue Twist &Roll'n'Rock
DYEAR=2015
DGENRE=Blues
TTITLE0=Psycho
TTITLE1=300 metrow
TTITLE2=Wielki swiat
TTITLE3=Black Beat
TTITLE4=Wild Thing ( Chip Taylor )
TTITLE5=Soul
TTITLE6=Dziecko
TTITLE7=Rock n' Roll
TTITLE8=7/4
TTITLE9=KtokolWiek
TTITLE10=Skrzyd³a
EXTD=
EXTT0=
EXTT1=
EXTT2=
EXTT3=
EXTT4=
EXTT5=
EXTT6=
EXTT7=
EXTT8=
EXTT9=
EXTT10=
PLAYORDER=
